<?xml version="1.0" standalone="no"?>
<!DOCTYPE svg PUBLIC "-//W3C//DTD SVG 20010904//EN"
 "http://www.w3.org/TR/2001/REC-SVG-20010904/DTD/svg10.dtd">
<svg version="1.0" xmlns="http://www.w3.org/2000/svg"
 width="827.000000pt" height="827.000000pt" viewBox="0 0 827.000000 827.000000"
 preserveAspectRatio="xMidYMid meet">
<metadata>
Created by potrace 1.14, written by Peter Selinger 2001-2017
</metadata>
<g transform="translate(0.000000,827.000000) scale(0.100000,-0.100000)"
fill="#000000" stroke="none">
<path d="M0 4135 l0 -4135 2070 0 2070 0 0 4135 0 4135 -2070 0 -2070 0 0
-4135z m1770 1757 c50 -25 70 -67 83 -177 12 -110 0 -250 -28 -309 -29 -60
-95 -76 -325 -76 -6 0 -10 -131 -10 -365 l0 -365 545 0 545 0 0 365 0 365 -83
0 c-91 0 -195 16 -215 33 -8 6 -23 29 -35 51 -20 37 -22 56 -22 206 0 183 10
222 68 264 28 21 38 21 627 21 589 0 599 0 627 -21 58 -42 68 -81 68 -264 0
-158 -1 -167 -25 -210 -34 -61 -63 -72 -192 -76 l-108 -3 0 -1088 0 -1088 117
-5 c70 -3 128 -11 141 -18 13 -8 34 -35 45 -60 20 -42 22 -64 22 -207 0 -144
-2 -165 -22 -208 -37 -80 -10 -77 -673 -77 -663 0 -636 -3 -673 77 -20 43 -22
64 -22 208 0 144 2 165 22 208 31 66 60 77 213 77 l120 0 0 420 0 420 -545 0
-545 0 0 -420 0 -420 128 0 c143 0 177 -12 207 -70 27 -52 40 -198 28 -305
-13 -106 -31 -148 -76 -175 -31 -19 -54 -20 -622 -20 -568 0 -591 1 -622 20
-18 10 -39 33 -48 50 -27 52 -40 198 -28 305 20 169 50 195 221 195 l112 0 0
1090 0 1090 -67 0 c-165 0 -231 30 -252 115 -30 119 -21 334 17 399 39 66 25
65 667 66 533 0 583 -1 615 -18z"/>
<path d="M4150 4135 l0 -4135 2060 0 2060 0 0 4135 0 4135 -2060 0 -2060 0 0
-4135z m2330 1823 c218 -35 417 -152 516 -303 l19 -29 5 111 c4 92 9 116 26
139 53 71 140 97 325 97 186 -1 253 -25 287 -106 9 -21 12 -182 12 -611 l0
-583 -23 -34 c-44 -67 -154 -99 -341 -99 -190 0 -304 36 -325 102 -5 18 -14
80 -20 138 -27 276 -145 446 -362 521 -81 28 -278 38 -383 19 -315 -55 -528
-304 -601 -700 -38 -211 -36 -576 4 -757 56 -248 171 -455 309 -557 143 -104
289 -148 492 -148 282 1 517 62 851 218 145 69 185 76 245 48 65 -31 140 -156
175 -293 32 -120 13 -221 -53 -277 -62 -52 -325 -165 -532 -228 -400 -122
-828 -142 -1169 -55 -360 92 -664 323 -859 655 -129 219 -201 453 -233 754
-56 523 52 1038 294 1395 76 111 223 263 331 342 277 202 672 296 1010 241z"/>
</g>
</svg>
